# AST/ASF file generated using VICON BodyLanguage
# -----------------------------------------------
:version 1.10
:name VICON
:units
  mass 1.0
  length 0.45
  angle deg
:documentation
   .ast/.asf automatically generated from VICON data using
   VICON BodyBuilder and BodyLanguage model FoxedUp or BRILLIANT.MOD
:root
   order TX TY TZ RX RY RZ
   axis XYZ
   position 0 0 0  
   orientation 0 0 0 
:bonedata
  begin
     id 1 
     name lhipjoint
     direction 0.535335 -0.74333 0.401095 
     length 2.04549 
     axis 0 0 0  XYZ
  end
  begin
     id 2 
     name lfemur
     direction 0.34202 -0.939693 0  
     length 6.95643  
     axis 0 0 20  XYZ
    dof rx ry rz
    limits (-160.0 20.0)
           (-70.0 70.0)
           (-60.0 70.0)
  end
  begin
     id 3 
     name ltibia
     direction 0.34192 -0.939729 0   
     length 5.55969   
     axis 0 0 20   XYZ
    dof rx
    limits (-10.0 170.0)
  end
  begin
     id 4 
     name lfoot
     direction 0.216943 -0.596046 0.773088   
     length 2.27918   
     axis -90 7.62852e-016 20   XYZ
    dof rx rz
    limits (-45.0 90.0)
           (-70.0 20.0)
  end
  begin
     id 5 
     name ltoes
     direction 1.53519e-011 -4.21748e-011 1   
     length 1.05562   
     axis -90 7.62852e-016 20   XYZ
    dof rx
    limits (-90.0 20.0)
  end
  begin
     id 6 
     name rhipjoint
     direction -0.576368 -0.719173 0.38806   
     length 2.1142  
     axis 0 0 0  XYZ 
  end
  begin
     id 7 
     name rfemur
     direction -0.34202 -0.939693 0   
     length 7.07928   
     axis 0 0 -20   XYZ
    dof rx ry rz
    limits (-160.0 20.0)
           (-70.0 70.0)
           (-70.0 60.0)
  end
  begin
     id 8 
     name rtibia
     direction -0.34202 -0.939693 0   
     length 5.79974   
     axis 0 0 -20   XYZ
    dof rx
    limits (-10.0 170.0)
 end
 begin
     id 9 
     name rfoot
     direction -0.189288 -0.520065 0.832888   
     length 2.42173  
     axis -90 -7.62852e-016 -20   XYZ
    dof rx rz
    limits (-45.0 90.0)
           (-20.0 70.0)
  end
  begin
     id 10 
     name rtoes
     direction -1.53574e-011 -4.21658e-011 1   
     length 1.14469   
     axis -90 -7.62852e-016 -20   XYZ
    dof rx
    limits (-90.0 20.0)
  end
  begin
     id 11 
     name lowerback
     direction -0.00135702 0.993803 0.111144   
     length 1.91308   
     axis 0 0 0   XYZ
    dof rx ry rz
    limits (-20.0 45.0)
           (-30.0 30.0)
           (-30.0 30.0)
  end
  begin
     id 12 
     name upperback
     direction -0.0056745 0.999813 0.0184631   
     length 1.9212   
     axis 0 0 0   XYZ
    dof rx ry rz
    limits (-20.0 45.0)
           (-30.0 30.0)
           (-30.0 30.0)
  end
  begin
     id 13 
     name thorax
     direction -0.00733434 0.999426 -0.0330788   
     length 1.94196   
     axis 0 0 0   XYZ
    dof rx ry rz
    limits (-20.0 45.0)
           (-30.0 30.0)
           (-30.0 30.0)
  end
  begin
     id 14 
     name lowerneck
     direction 0.0563074 0.996944 -0.0541571   
     length 2.34257   
     axis 0 0 0   XYZ
    dof rx ry rz
    limits (-20.0 45.0)
           (-30.0 30.0)
           (-30.0 30.0)
  end
  begin
     id 15 
     name upperneck
     direction -0.0544519 0.976166 -0.210085   
     length 2.32506   
     axis 0 0 0   XYZ
    dof rx ry rz
    limits (-20.0 45.0)
           (-30.0 30.0)
           (-30.0 30.0)
  end
  begin
     id 16
     name head
     direction -0.0226035 0.997615 -0.0652205  
     length 2.3648  
     axis 0 0 0   XYZ
    dof rx ry rz
    limits (-20.0 45.0)
           (-30.0 30.0)
           (-30.0 30.0)
  end
  begin
     id 17 
     name lclavicle
     direction 0.92109 0.381297 -0.0787716  
     length 4.0487  
     axis 0 0 0   XYZ
    dof ry rz
    limits (-20.0 10.0)
           (0.0 20.0)
  end
  begin
     id 18 
     name lhumerus
     direction 1 -4.48986e-011 3.56724e-027   
     length 4.94991   
     axis 180 -30 -90   XYZ
    dof rx ry rz
    limits (-60.0 90.0)
           (-90.0 90.0)
           (-90.0 90.0)
  end
  begin
     id 19
     name lradius
     direction 1 -4.48981e-011 8.62147e-027   
     length 2.7606   
     axis 180 -30 -90   XYZ
    dof rx
    limits (-10.0 170.0)
  end
  begin
     id 20
     name lwrist
     direction 1 -4.48989e-011 1.59799e-026   
     length 1.3803   
     axis -1.17785e-014 90 90   XYZ
    dof ry
    limits (-180.0 0.0)
 end
  begin
     id 21 
     name lhand
     direction 1 -4.48896e-011 3.19599e-026   
     length 0.843936   
     axis -2.03931e-014 90 90   XYZ
    dof rx rz
    limits (-90.0 90.0)
           (-45.0 45.0)
  end
  begin
     id 22 
     name lfingers
     direction 1 -4.48887e-011 6.39197e-026   
     length 0.680403   
     axis -4.07862e-014 90 90   XYZ
    dof rx
    limits (0.0 90.0)
  end
  begin
     id 23
     name lthumb
     direction 0.707107 -6.348e-011 0.707107   
     length 0.976926   
     axis -90 45 2.85299e-015   XYZ
    dof rx rz
    limits (-45.0 45.0)
           (-45.0 45.0)
  end
  begin
     id 24 
     name rclavicle
     direction -0.951104 0.307692 -0.026953   
     length 4.21801  
     axis 0 0 0   XYZ 
    dof ry rz
    limits (-10.0 20.0)
           (-20.0 0.0)
  end
  begin
     id 25 
     name rhumerus
     direction -1 -4.4896e-011 -1.8171e-018  
     length 4.32982   
     axis 180 30 90   XYZ
    dof rx ry rz
    limits (-90.0 60.0)
           (-90.0 90.0)
           (-90.0 90.0)
  end
  begin
     id 26 
     name rradius
     direction -1 -4.48959e-011 8.25165e-027   
     length 3.20057   
     axis 180 30 90   XYZ
    dof rx
    limits (-10.0 170.0)
  end
  begin
     id 27 
     name rwrist
     direction -1 -4.48997e-011 1.59799e-026   
     length 1.60029   
     axis -1.17785e-014 -90 -90   XYZ
    dof ry
    limits (-180.0 0.0)
  end
  begin
     id 28
     name rhand
     direction -1 -4.49023e-011 3.19599e-026   
     length 0.960433   
     axis -2.03931e-014 -90 -90   XYZ
    dof rx rz
    limits (-90.0 90.0)
           (-45.0 45.0)
  end
  begin
     id 29
     name rfingers
     direction -1 -4.48802e-011 6.39197e-026   
     length 0.774326   
     axis -4.07862e-014 -90 -90   XYZ
    dof rx
    limits (0.0 90.0)
  end
  begin
     id 30
     name rthumb
     direction -0.707107 -6.34876e-011 0.707107   
     length 1.11178   
     axis -90 -45 -2.85299e-015   XYZ
    dof rx rz
    limits (-45.0 45.0)
           (-45.0 45.0)
  end
:hierarchy
  begin
    root lhipjoint rhipjoint lowerback
    lhipjoint lfemur
    lfemur ltibia
    ltibia lfoot
    lfoot ltoes
    rhipjoint rfemur
    rfemur rtibia
    rtibia rfoot
    rfoot rtoes
    lowerback upperback
    upperback thorax
    thorax lowerneck lclavicle rclavicle
    lowerneck upperneck
    upperneck head
    lclavicle lhumerus
    lhumerus lradius
    lradius lwrist
    lwrist lhand lthumb
    lhand lfingers
    rclavicle rhumerus
    rhumerus rradius
    rradius rwrist
    rwrist rhand rthumb
    rhand rfingers
end

#!OML:ASF C:\KaitlinTest1\Natural Motions\Nikki\Session 2\Nikki.ASF
:FULLY-SPECIFIED
:DEGREES
217
root -12.7155 17.1691 4.88886 14.7492 81.4775 -3.9962
lowerback 0.417097 0.0056319 -2.15321
upperback -3.95558 -0.0578436 -1.90892
thorax -4.30958 0.0382274 -0.76295
lowerneck -20.4928 -12.6179 -4.79422
upperneck 0.995141 38.3105 4.10725
head 162.128 62.6421 -43.1145
rclavicle 1.27222e-014 1.51076e-014
rhumerus 22.0668 6.79132 -39.0876
rradius 109.368
rwrist -16.9225
rhand -57.5261 17.3422
rfingers 7.12502
rthumb -29.7937 -10.2822
lclavicle 1.27222e-014 1.51076e-014
lhumerus 36.7381 22.7157 32.6178
lradius 106.998
lwrist 38.4309
lhand -53.5041 6.93165
lfingers 7.12502
lthumb -25.9485 35.1805
rfemur -30.9792 -19.489 23.8306
rtibia 32.192
rfoot -2.1901 23.4015
rtoes 1.01778e-013
lfemur -30.1946 17.7664 -23.5935
ltibia 29.3564
lfoot 9.58629 -12.8011
ltoes 2.76708e-013
218
root -12.5949 17.3404 4.90335 15.247 81.7277 -2.05377
lowerback 0.313077 -0.284794 -2.28611
upperback -3.90458 -0.444205 -1.90315
thorax -4.19559 -0.150358 -0.666678
lowerneck -18.5066 -12.1744 -5.40547
upperneck 1.59613 38.6679 4.20711
head 162.343 62.8726 -42.6605
rclavicle 2.88238e-015 -2.14687e-014
rhumerus 19.929 7.53953 -39.4308
rradius 109.865
rwrist -16.9512
rhand -56.8287 17.2658
rfingers 7.12502
rthumb -29.1279 -10.4759
lclavicle 2.88238e-015 -2.14687e-014
lhumerus 33.7282 24.0197 30.3601
lradius 106.585
lwrist 38.6746
lhand -53.9157 7.09499
lfingers 7.12502
lthumb -26.3427 35.2854
rfemur -28.335 -24.0207 23.7362
rtibia 29.493
rfoot 0.826953 29.1147
rtoes -1.55847e-013
lfemur -28.003 21.3572 -23.8244
ltibia 27.5426
lfoot 13.6297 -17.5653
ltoes -1.24042e-013
219
root -12.4752 17.5666 4.91657 16.6849 81.9731 0.812768
lowerback -0.505768 -0.617773 -2.65023
upperback -3.29792 -0.8526 -1.92846
thorax -3.09617 -0.357821 -0.48095
lowerneck -17.0509 -11.7388 -5.85014
upperneck 2.00158 38.7844 4.26602
head 162.345 63.41 -42.4504
rclavicle 2.60408e-014 1.03368e-014
rhumerus 18.274 8.20084 -39.3735
rradius 110.267
rwrist -17.491
rhand -56.6871 17.3595
rfingers 7.12502
rthumb -28.9927 -10.4055
lclavicle 2.60408e-014 1.03368e-014
lhumerus 30.8859 26.2348 27.5809
lradius 105.67
lwrist 39.2858
lhand -54.053 7.6129
lfingers 7.12502
lthumb -26.474 35.7836
rfemur -26.6993 -29.4132 23.6546
rtibia 27.9132
rfoot 4.40089 35.3587
rtoes 1.33583e-013
lfemur -25.913 24.3278 -23.7013
ltibia 25.5564
lfoot 19.6761 -22.0194
ltoes 9.22361e-014
220
root -12.3494 17.8334 4.92855 17.9408 82.4755 3.30269
lowerback -0.854808 -1.05778 -2.84138
upperback -3.17261 -1.42174 -1.85341
thorax -2.75763 -0.64019 -0.2924
lowerneck -14.9384 -11.226 -6.58494
upperneck 2.53593 38.6615 4.27129
head 162.058 64.3564 -42.3008
rclavicle 2.18663e-014 -7.95139e-015
rhumerus 16.2143 9.16805 -39.1404
rradius 110.491
rwrist -17.8158
rhand -56.2957 16.9445
rfingers 7.12502
rthumb -28.6188 -10.8842
lclavicle 2.18663e-014 -7.95139e-015
lhumerus 27.2367 27.6941 24.9125
lradius 103.772
lwrist 38.9021
lhand -53.3584 7.06112
lfingers 7.12502
lthumb -25.809 35.3303
rfemur -27.9472 -40.3549 25.7497
rtibia 27.4863
rfoot 11.0308 44.25
rtoes -5.725e-014
lfemur -24.0902 26.2476 -22.9881
ltibia 23.3987
lfoot 27.2179 -23.5808
ltoes -1.17681e-013
221
root -12.2268 18.2183 4.93448 18.881 83.1925 5.20961
lowerback -1.62976 -1.61549 -2.77455
upperback -3.01204 -2.12513 -1.76515
thorax -2.14453 -0.999731 -0.25431
lowerneck -12.9639 -10.719 -7.18952
upperneck 3.03898 38.4344 4.25564
head 161.212 65.5796 -42.6179
rclavicle -5.36719e-015 0
rhumerus 14.0385 10.3893 -39.18
rradius 110.587
rwrist -17.7854
rhand -55.9433 16.8445
rfingers 7.12502
rthumb -28.2821 -11.0404
lclavicle -5.36719e-015 0
lhumerus 23.4034 28.7552 21.641
lradius 102.111
lwrist 39.4822
lhand -52.932 7.89392
lfingers 7.12502
lthumb -25.4006 36.2218
rfemur -29.1044 -50.9503 28.0987
rtibia 27.606
rfoot 15.8187 49.433
rtoes -1.145e-013
lfemur -21.0104 19.9558 -20.4803
ltibia 20.9926
lfoot 32.6216 -14.3938
ltoes -8.26944e-014
222
root -12.1184 18.6439 4.94533 18.7464 83.774 5.92205
lowerback -2.30095 -2.09566 -2.61749
upperback -2.92494 -2.7338 -1.69379
thorax -1.67296 -1.31163 -0.296269
lowerneck -10.9814 -10.2838 -7.7019
upperneck 3.44929 37.7515 4.19328
head 159.76 67.3231 -43.4189
rclavicle 1.3418e-014 -3.97569e-015
rhumerus 11.9878 11.4137 -39.3978
rradius 110.419
rwrist -17.559
rhand -55.6748 16.0152
rfingers 7.12502
rthumb -28.0254 -11.912
lclavicle 1.3418e-014 -3.97569e-015
lhumerus 19.4869 29.1995 18.2519
lradius 100.255
lwrist 39.9286
lhand -52.3886 8.58576
lfingers 7.12502
lthumb -24.88 36.9866
rfemur -24.4954 -44.8363 23.5693
rtibia 27.7521
rfoot 17.5583 35.4657
rtoes -1.04958e-013
lfemur -17.7122 13.4928 -18.7517
ltibia 18.6759
lfoot 31.2198 -4.74702
ltoes -1.52667e-013
